<svg id="visual" viewBox="0 0 900 200" width="900" height="200" xmlns="http://www.w3.org/2000/svg" xmlns:xlink="http://www.w3.org/1999/xlink" version="1.1"><rect x="0" y="0" width="900" height="200" fill="#ee6c4d"></rect><path d="M0 152L16.7 157.3C33.3 162.7 66.7 173.3 100 171.7C133.3 170 166.7 156 200 151.7C233.3 147.3 266.7 152.7 300 154.2C333.3 155.7 366.7 153.3 400 154.8C433.3 156.3 466.7 161.7 500 162.5C533.3 163.3 566.7 159.7 600 155.5C633.3 151.3 666.7 146.7 700 147.2C733.3 147.7 766.7 153.3 800 155.7C833.3 158 866.7 157 883.3 156.5L900 156L900 0L883.3 0C866.7 0 833.3 0 800 0C766.7 0 733.3 0 700 0C666.7 0 633.3 0 600 0C566.7 0 533.3 0 500 0C466.7 0 433.3 0 400 0C366.7 0 333.3 0 300 0C266.7 0 233.3 0 200 0C166.7 0 133.3 0 100 0C66.7 0 33.3 0 16.7 0L0 0Z" fill="#ee6c4d"></path><path d="M0 132L16.7 133.7C33.3 135.3 66.7 138.7 100 135.2C133.3 131.7 166.7 121.3 200 118.8C233.3 116.3 266.7 121.7 300 129.5C333.3 137.3 366.7 147.7 400 150.3C433.3 153 466.7 148 500 141.2C533.3 134.3 566.7 125.7 600 127.2C633.3 128.7 666.7 140.3 700 147C733.3 153.7 766.7 155.3 800 149.2C833.3 143 866.7 129 883.3 122L900 115L900 0L883.3 0C866.7 0 833.3 0 800 0C766.7 0 733.3 0 700 0C666.7 0 633.3 0 600 0C566.7 0 533.3 0 500 0C466.7 0 433.3 0 400 0C366.7 0 333.3 0 300 0C266.7 0 233.3 0 200 0C166.7 0 133.3 0 100 0C66.7 0 33.3 0 16.7 0L0 0Z" fill="#d95979"></path><path d="M0 101L16.7 98.2C33.3 95.3 66.7 89.7 100 91C133.3 92.3 166.7 100.7 200 103C233.3 105.3 266.7 101.7 300 95.8C333.3 90 366.7 82 400 83.2C433.3 84.3 466.7 94.7 500 96.8C533.3 99 566.7 93 600 94.8C633.3 96.7 666.7 106.3 700 109.8C733.3 113.3 766.7 110.7 800 111.5C833.3 112.3 866.7 116.7 883.3 118.8L900 121L900 0L883.3 0C866.7 0 833.3 0 800 0C766.7 0 733.3 0 700 0C666.7 0 633.3 0 600 0C566.7 0 533.3 0 500 0C466.7 0 433.3 0 400 0C366.7 0 333.3 0 300 0C266.7 0 233.3 0 200 0C166.7 0 133.3 0 100 0C66.7 0 33.3 0 16.7 0L0 0Z" fill="#a95a94"></path><path d="M0 71L16.7 69C33.3 67 66.7 63 100 63C133.3 63 166.7 67 200 64.8C233.3 62.7 266.7 54.3 300 54C333.3 53.7 366.7 61.3 400 65.7C433.3 70 466.7 71 500 71C533.3 71 566.7 70 600 68C633.3 66 666.7 63 700 61.7C733.3 60.3 766.7 60.7 800 57.5C833.3 54.3 866.7 47.7 883.3 44.3L900 41L900 0L883.3 0C866.7 0 833.3 0 800 0C766.7 0 733.3 0 700 0C666.7 0 633.3 0 600 0C566.7 0 533.3 0 500 0C466.7 0 433.3 0 400 0C366.7 0 333.3 0 300 0C266.7 0 233.3 0 200 0C166.7 0 133.3 0 100 0C66.7 0 33.3 0 16.7 0L0 0Z" fill="#6e5e96"></path><path d="M0 50L16.7 46.2C33.3 42.3 66.7 34.7 100 29.5C133.3 24.3 166.7 21.7 200 22.3C233.3 23 266.7 27 300 24.8C333.3 22.7 366.7 14.3 400 12.2C433.3 10 466.7 14 500 14.7C533.3 15.3 566.7 12.7 600 11.8C633.3 11 666.7 12 700 15.8C733.3 19.7 766.7 26.3 800 27C833.3 27.7 866.7 22.3 883.3 19.7L900 17L900 0L883.3 0C866.7 0 833.3 0 800 0C766.7 0 733.3 0 700 0C666.7 0 633.3 0 600 0C566.7 0 533.3 0 500 0C466.7 0 433.3 0 400 0C366.7 0 333.3 0 300 0C266.7 0 233.3 0 200 0C166.7 0 133.3 0 100 0C66.7 0 33.3 0 16.7 0L0 0Z" fill="#3d5a80"></path></svg>